<svg width="12" height="13" viewBox="0 0 12 13" xmlns="http://www.w3.org/2000/svg">
<path d="M11.1366 10.1309C10.9324 10.5851 10.6906 11.0032 10.4106 11.3876C10.0288 11.9116 9.71618 12.2743 9.47528 12.4757C9.10183 12.8063 8.70172 12.9756 8.27326 12.9852C7.96567 12.9852 7.59473 12.901 7.16293 12.7301C6.72972 12.5599 6.33161 12.4757 5.96758 12.4757C5.5858 12.4757 5.17635 12.5599 4.73839 12.7301C4.29976 12.901 3.94641 12.9901 3.67624 12.9989C3.26537 13.0157 2.85584 12.8416 2.44705 12.4757C2.18614 12.2566 1.8598 11.8811 1.46885 11.3491C1.04939 10.7809 0.70454 10.1221 0.434377 9.37103C0.145043 8.55976 0 7.77417 0 7.01361C0 6.1424 0.195557 5.39099 0.587255 4.76131C0.895096 4.25553 1.30463 3.85655 1.8172 3.56366C2.32977 3.27077 2.8836 3.12151 3.48002 3.11196C3.80637 3.11196 4.23432 3.20914 4.76615 3.40012C5.29647 3.59174 5.63699 3.68892 5.78628 3.68892C5.8979 3.68892 6.27617 3.57529 6.91744 3.34876C7.52387 3.13868 8.03569 3.0517 8.45498 3.08596C9.59114 3.17423 10.4447 3.60539 11.0124 4.38215C9.99626 4.97484 9.49362 5.80497 9.50362 6.86989C9.51279 7.69938 9.82538 8.38964 10.4397 8.93771C10.7181 9.19209 11.0291 9.38869 11.375 9.52831C11.3 9.73775 11.2208 9.93836 11.1366 10.1309ZM8.53083 0.260074C8.53083 0.910222 8.28409 1.51726 7.79228 2.07914C7.19878 2.74709 6.4809 3.13307 5.70242 3.07216C5.6925 2.99416 5.68675 2.91207 5.68675 2.82581C5.68675 2.20167 5.969 1.53371 6.47023 0.98757C6.72047 0.711048 7.03873 0.481123 7.42468 0.297708C7.80979 0.11703 8.17406 0.0171107 8.51666 0C8.52667 0.0869147 8.53083 0.173835 8.53083 0.260066V0.260074Z"/>
</svg>
