<svg width="21" height="10" viewBox="0 0 21 10" fill="none" xmlns="http://www.w3.org/2000/svg">
<path fill-rule="evenodd" clip-rule="evenodd" d="M17 0H2C0.895431 0 0 0.895431 0 2V8C0 9.10457 0.89543 10 2 10H17C18.1046 10 19 9.10457 19 8V7H20C20.5523 7 21 6.55228 21 6V4C21 3.44772 20.5523 3 20 3H19V2C19 0.895431 18.1046 0 17 0ZM18 4V2C18 1.44772 17.5523 1 17 1H2C1.44772 1 1 1.44772 1 2V8C1 8.55228 1.44772 9 2 9H17C17.5523 9 18 8.55228 18 8V6V4Z" fill="white"/>
<rect x="2" y="2" width="14" height="6" rx="1" fill="white"/>
</svg>
